<svg viewBox="0 0 64 64" xmlns="http://www.w3.org/2000/svg"><g fill="none" fill-rule="evenodd"><path d="m0 64h64v-64h-64z" fill="#1da1f2"/><path d="m24.579216 48.254368c15.0944 0 23.35024-12.5056 23.35024-23.3504 0-.3552 0-.7088-.02384-1.0608 1.60608-1.16176 2.99248-2.60016 4.0944-4.248-1.49776.66368-3.08672 1.09904-4.7136 1.2912 1.71312-1.0256 2.99552-2.63872 3.608-4.5392-1.61104.956-3.37328 1.6296-5.21136 1.992-3.10784-3.3048-8.30656-3.46432-11.61136-.35632-2.13136 2.00432-3.03568 4.9912-2.37408 7.84112-6.59856-.33072-12.7464-3.44752-16.9136-8.5744-2.17824 3.74992-1.0656 8.54704 2.5408 10.9552-1.30608-.03872-2.58352-.39104-3.7248-1.0272v.104c.00112 3.90656 2.75472 7.2712 6.584 8.0448-1.20816.3296-2.47584.37776-3.7056.1408 1.07504 3.3432 4.15616 5.63328 7.6672 5.6992-2.90608 2.284-6.496 3.52384-10.192 3.52-.65296-.00128-1.30528-.0408-1.9536-.1184 3.75296 2.40848 8.11984 3.68592 12.5792 3.68" fill="#fff"/></g></svg>